<svg height="512pt" viewBox="0 -11 512 512" width="512pt" xmlns="http://www.w3.org/2000/svg"><path d="m463.664062 355.597656c16.839844-33.226562 26.335938-70.800781 26.335938-110.597656 0-135.308594-109.6875-245-245-245-57.78125 0-110.882812 20.015625-152.773438 53.476562zm0 0" fill="#27a3ff"/><path d="m398.007812 436.335938h-306.015624c41.925781 33.574218 95.117187 53.664062 153.007812 53.664062s111.082031-20.089844 153.007812-53.664062zm0 0" fill="#2b3894"/><path d="m192.617188 436.335938h-100.625c32.582031 26.089843 71.96875 44.03125 115.074218 50.738281-19.328125-9.457031-23.792968-33.816407-14.449218-50.738281zm0 0" fill="#232e7a"/><path d="m445.308594 52.664062h-352.078125c-56.785157 44.871094-93.230469 114.347657-93.230469 192.335938 0 57.957031 20.136719 111.203125 53.777344 153.152344h415.199218v-321.816406c0-13.019532-10.652343-23.671876-23.667968-23.671876zm0 0" fill="#2b3894"/><path d="m19.585938 148.878906c-12.601563 29.515625-19.585938 62-19.585938 96.121094 0 57.957031 20.136719 111.203125 53.777344 153.152344h395.199218v-249.273438zm0 0" fill="#e6f7fe"/><path d="m70.429688 148.878906h-50.84375c-12.601563 29.515625-19.585938 62-19.585938 96.121094 0 57.957031 20.136719 111.203125 53.777344 153.152344h16.652344zm0 0" fill="#d5f1fe"/><path d="m444.949219 72.664062h-374.078125c-15.417969 15.582032-28.757813 33.21875-39.574219 52.46875h417.679687v-48.441406c0-2.222656-1.804687-4.027344-4.027343-4.027344zm0 0" fill="#615df9"/><path d="m70.429688 125.132812v-52.011718c-15.230469 15.46875-28.417969 32.949218-39.132813 52.011718zm0 0" fill="#3d4ec6"/><path d="m70.425781 107.664062c-5.511719 0-10-4.484374-10-10 0-6.226562 5.722657-11.054687 11.960938-9.796874 4.539062.851562 8.039062 4.953124 8.039062 9.796874 0 5.605469-4.578125 10-10 10zm0 0" fill="#39df74"/><path d="m417.488281 105.632812h-52.667969c-4.140624 0-7.5-3.355468-7.5-7.5 0-4.140624 3.359376-7.5 7.5-7.5h52.667969c4.144531 0 7.5 3.359376 7.5 7.5 0 4.144532-3.355469 7.5-7.5 7.5zm0 0" fill="#aeaeff"/><path d="m327.140625 105.632812h-217.066406c-4.140625 0-7.5-3.355468-7.5-7.5 0-4.140624 3.359375-7.5 7.5-7.5h217.066406c4.144531 0 7.5 3.359376 7.5 7.5 0 4.144532-3.355469 7.5-7.5 7.5zm0 0" fill="#aeaeff"/><path d="m286.824219 98.132812c0-4.140624 3.359375-7.5 7.5-7.5h-184.25c-4.140625 0-7.5 3.359376-7.5 7.5 0 4.144532 3.359375 7.5 7.5 7.5h184.25c-4.140625 0-7.5-3.355468-7.5-7.5zm0 0" fill="#8181fc"/><path d="m400.519531 321.875h-158.71875c-2.617187 0-4.738281 2.121094-4.738281 4.738281v16.28125c0 2.617188 2.121094 4.738281 4.738281 4.738281h158.71875c2.617188 0 4.738281-2.121093 4.738281-4.738281v-16.28125c0-2.617187-2.121093-4.738281-4.738281-4.738281zm0 0" fill="#d5f1fe"/><path d="m282.085938 342.894531v-16.28125c0-2.617187 2.121093-4.738281 4.738281-4.738281h-45.023438c-2.617187 0-4.738281 2.121094-4.738281 4.738281v16.28125c0 2.617188 2.121094 4.738281 4.738281 4.738281h45.023438c-2.617188 0-4.738281-2.121093-4.738281-4.738281zm0 0" fill="#11dfef"/><path d="m400.519531 321.875h-22.503906v25.757812h22.503906c2.617188 0 4.738281-2.121093 4.738281-4.738281v-16.28125c0-2.617187-2.121093-4.738281-4.738281-4.738281zm0 0" fill="#f948b4"/><path d="m504.570312 396.152344c-8.648437 0-281.417968 0-452.398437 0 12.007813 15.296875 25.800781 29.125 41.058594 41.183594h374.308593c21.445313 0 34.847657-8.570313 40.050782-10.4375 2.679687-1.191407 4.410156-3.851563 4.410156-6.789063v-16.53125c0-4.101563-3.324219-7.425781-7.429688-7.425781zm0 0" fill="#aeaeff"/><path d="m196.910156 415.867188c.539063 0 1.0625.050781 1.578125.121093v-19.835937c-51.359375 0-102.222656 0-146.316406 0 12.007813 15.296875 25.800781 29.125 41.058594 41.183594h98.6875c-3.742188-1.847657-6.324219-5.691407-6.324219-10.148438 0-6.253906 5.066406-11.320312 11.316406-11.320312zm0 0" fill="#8181fc"/><path d="m117.519531 396.152344v8.589844c0 6.601562 5.402344 12 12 12h161.992188c6.597656 0 12-5.398438 12-12v-8.589844c-57.855469 0-124.222657 0-185.992188 0zm0 0" fill="#8181fc"/><path d="m181.019531 404.742188v-8.589844c-21.355469 0-42.6875 0-63.5 0v8.589844c0 6.601562 5.402344 12 12 12h63.5c-6.597656 0-12-5.398438-12-12zm0 0" fill="#615df9"/><g fill="#11dfef"><path d="m401.058594 238.957031h-159.796875c-4.144531 0-7.5-3.359375-7.5-7.5 0-4.144531 3.355469-7.5 7.5-7.5h159.796875c4.140625 0 7.5 3.355469 7.5 7.5 0 4.140625-3.359375 7.5-7.5 7.5zm0 0"/><path d="m401.058594 267.574219h-159.796875c-4.144531 0-7.5-3.359375-7.5-7.5s3.355469-7.5 7.5-7.5h159.796875c4.140625 0 7.5 3.359375 7.5 7.5s-3.359375 7.5-7.5 7.5zm0 0"/><path d="m321.160156 296.191406h-79.898437c-4.144531 0-7.5-3.355468-7.5-7.5 0-4.140625 3.355469-7.5 7.5-7.5h79.898437c4.140625 0 7.5 3.359375 7.5 7.5 0 4.144532-3.359375 7.5-7.5 7.5zm0 0"/><path d="m321.160156 210.339844h-79.898437c-4.144531 0-7.5-3.359375-7.5-7.5 0-4.144532 3.355469-7.5 7.5-7.5h79.898437c4.140625 0 7.5 3.355468 7.5 7.5 0 4.140625-3.359375 7.5-7.5 7.5zm0 0"/></g><path d="m179.609375 182.867188h-164.792969c-3.753906 0-6.976562 2.367187-8.269531 5.679687-.195313.832031-.386719 1.664063-.570313 2.5-.019531.230469-.039062.460937-.039062.699219v107.042968c5.308594 23.691407 14.046875 46.078126 25.664062 66.628907h148.007813c4.882813 0 8.878906-3.996094 8.878906-8.878907v-164.792968c0-4.882813-3.996093-8.878906-8.878906-8.878906zm0 0" fill="#4fbbff"/><path d="m6.546875 188.550781c-.195313.828125-.386719 1.660157-.574219 2.496094-.019531.230469-.035156.464844-.035156.699219v107.042968c5.308594 23.691407 14.042969 46.078126 25.664062 66.628907h32.09375c.066407-5.882813 6.734376-10 6.734376-10s28.8125-9.105469 9.265624-19.296875c-22.203124-11.574219.5625-21.679688.5625-21.679688s11-11.878906-6.667968-26.714844c-13.492188-11.328124-6.011719-28.730468-.738282-37.621093 1.769532-2.980469.972657-6.8125-1.800781-8.890625-9.570312-7.164063-6.3125-16.386719-3.316406-21.480469 1.339844-2.277344 1.230469-5.15625-.320313-7.296875-5.105468-7.0625-3.140624-12.601562-.671874-15.957031 1.6875-2.289063 1.84375-5.3125.394531-7.757813-1.25-2.113281-1.761719-4.078125-1.816407-5.855468h-50.503906c-3.753906 0-6.976562 2.367187-8.269531 5.683593zm0 0" fill="#27a3ff"/><path d="m140.363281 261.894531c-11.890625 0-21.566406-9.671875-21.566406-21.566406 0-1.015625.074219-2.015625.210937-2.996094-1.179687-.878906-2.359374-1.789062-3.546874-2.765625-17.9375-14.71875-35.152344-19.074218-49.445313-18.933594-32.542969.3125-49.273437 23.003907-57.714844 28.820313 0 0-.828125.734375-2.363281 1.882813v52.453124c5.308594 23.691407 14.046875 46.078126 25.664062 66.628907h148.007813c4.882813 0 8.878906-3.996094 8.878906-8.878907v-114.269531c-7.886719 4.691407-17.960937 8.734375-29.585937 9.066407-3.765625 6.316406-10.664063 10.558593-18.539063 10.558593zm0 0" fill="#27a3ff"/><path d="m70.429688 355.417969s28.8125-9.105469 9.269531-19.296875c-22.207031-11.574219.558593-21.679688.558593-21.679688s11-11.878906-6.664062-26.714844c-13.496094-11.328124-6.015625-28.730468-.742188-37.621093 1.769532-2.980469.976563-6.8125-1.800781-8.890625-9.570312-7.164063-6.308593-16.386719-3.3125-21.480469.734375-1.25 1.019531-2.683594.878907-4.078125-.878907-.027344-1.746094-.035156-2.601563-.027344-32.542969.316406-49.273437 23.003906-57.714844 28.820313 0 0-.828125.738281-2.363281 1.882812v52.457031c5.308594 23.6875 14.046875 46.078126 25.664062 66.625h32.097657c.0625-5.878906 6.730469-9.996093 6.730469-9.996093zm0 0" fill="#0080f4"/><path d="m162.851562 240.328125c0 12.417969-10.066406 22.488281-22.488281 22.488281-12.417969 0-22.484375-10.070312-22.484375-22.488281s10.066406-22.488281 22.484375-22.488281c12.421875 0 22.488281 10.070312 22.488281 22.488281zm0 0" fill="#fecd0a"/><path d="m153.210938 282.925781-10.730469 10.730469c-2.640625 2.640625-6.917969 2.640625-9.558594 0l-44.199219-44.199219c-6.671875-6.671875-17.492187-6.671875-24.164062 0l-56.828125 56.828125c5.386719 20.929688 13.484375 40.761719 23.871093 59.132813h148.007813c4.882813 0 8.878906-3.996094 8.878906-8.878907v-60.203124l-13.40625-13.410157c-6.042969-6.039062-15.832031-6.039062-21.871093 0zm0 0" fill="#a2ec00"/><path d="m70.429688 355.417969s28.8125-9.105469 9.269531-19.296875c-22.207031-11.574219.558593-21.679688.558593-21.679688s11-11.878906-6.664062-26.714844c-13.496094-11.328124-6.015625-28.730468-.742188-37.621093.992188-1.671875 1.175782-3.613281.660157-5.363281-3.28125.609374-6.414063 2.175781-8.953125 4.710937l-56.828125 56.832031c5.386719 20.929688 13.484375 40.761719 23.871093 59.132813h32.097657c.0625-5.882813 6.730469-10 6.730469-10zm0 0" fill="#00c82f"/><path d="m117.878906 332.285156c-45.765625-35.25-71.207031-10.367187-98.941406 7.308594 3.722656 8.886719 7.960938 17.503906 12.664062 25.824219h148.007813c4.882813 0 8.878906-3.996094 8.878906-8.878907v-25.421874c-15.707031 14.441406-39.898437 24.824218-70.609375 1.167968zm0 0" fill="#00c82f"/><path d="m70.429688 355.417969s28.8125-9.105469 9.269531-19.296875c-19.988281-10.417969-3.542969-19.644532-.054688-21.382813-23.949219-2.59375-41.796875 12.800781-60.707031 24.851563 3.722656 8.890625 7.960938 17.507812 12.664062 25.824218h32.097657c.0625-5.878906 6.730469-9.996093 6.730469-9.996093zm0 0" fill="#02ad22"/><path d="m179.609375 172.867188h-164.792969c-1.429687 0-2.820312.175781-4.160156.480468-6.921875 22.664063-10.65625 46.71875-10.65625 71.652344 0 30.664062 5.648438 60.003906 15.9375 87.058594v-139.191406h162.550781v162.550781h-152.242187c3.46875 6.859375 7.253906 13.53125 11.332031 20h142.03125c10.410156 0 18.878906-8.46875 18.878906-18.878907v-164.792968c0-10.410156-8.46875-18.878906-18.878906-18.878906zm0 0" fill="#d5f1fe"/><path d="m10.65625 173.34375c-6.921875 22.667969-10.65625 46.722656-10.65625 71.65625 0 30.664062 5.648438 60.003906 15.9375 87.058594v-139.191406h52.152344c.113281-1.414063-.195313-2.855469-.957032-4.144532-5.53125-9.34375 3.296876-15.855468 3.296876-15.855468h-55.613282c-1.429687 0-2.820312.175781-4.160156.476562zm0 0" fill="#11dfef"/><path d="m70.429688 355.417969h-44.183594c3.46875 6.859375 7.253906 13.527343 11.332031 20h32.851563c-15.164063-10.644531 0-20 0-20zm0 0" fill="#11dfef"/><path d="m18.746094 150.878906h430.230468v-27.746094h-416.5625c-5.117187 8.910157-9.683593 18.175782-13.667968 27.746094zm0 0" fill="#d5f1fe"/><path d="m70.429688 150.878906c0-15.324218-12.421876-27.746094-27.746094-27.746094h-10.269532c-5.117187 8.910157-9.683593 18.175782-13.667968 27.746094zm0 0" fill="#11dfef"/><path d="m133.539062 218.898438c-9.082031 2.890624-15.660156 11.390624-15.660156 21.429687 0 12.417969 10.066406 22.488281 22.484375 22.488281 5.375 0 10.308594-1.890625 14.175781-5.035156-28.972656-9.777344-21-38.882812-21-38.882812zm0 0" fill="#fca60d"/></svg>